<svg xmlns="http://www.w3.org/2000/svg" viewBox="0 0 128 128">
  <rect width="128" height="128" rx="20" fill="#fff6dc"/>
  <path d="M26 74c0-23 18-42 44-42 23 0 36 13 36 32 0 22-17 39-43 39H26V74z" fill="#f4d85b"/>
  <path d="M33 45h27c17 0 27 9 27 24 0 20-16 34-38 34H33V45zm23 39c9 0 15-6 15-14 0-7-5-11-13-11h-7v25h5z" fill="#2e6388"/>
  <path d="M78 73c3-18 13-29 28-27 10 2 15 10 13 22-3 17-13 28-27 26-11-2-16-9-14-21z" fill="#d97972"/>
  <path d="M73 106c1-21 5-34 15-36 7-1 11 4 13 14 5-8 10-12 17-10 8 2 11 11 9 27l-2 17h-17l2-17c1-5 0-8-2-8-3 0-6 5-8 13l-3 12H82l1-18c0-5-1-8-3-8-3 0-5 5-6 14l-2 12H56l17-12z" fill="#df5c1d"/>
</svg>
